# xmcd
#
# Track frame offsets:
#	182
#	5462
#	22372
#	42775
#	64950
#	81910
#	106562
#	180995
#
# Disc length: 2754 seconds
#
# Revision: 7
# Processed by: cddbd v1.5.2PL0 Copyright (c) Steve Scherf et al.
# Submitted via: EasyCDDAExtractor 15.3.0.1
#
DISCID=5b0ac008
DTITLE=Luis Miguel - El Concierto - CD 1
DYEAR=1995
DGENRE=Latin
TTITLE0=Introduccion
TTITLE1=Luz Verde
TTITLE2=Pensar En Ti
TTITLE3=Dame Tu Amor
TTITLE4=No Se Tu
TTITLE5=Alguien Como Tu
TTITLE6=Medley (Yo Que No Vivo Sin Ti, Culpable O No, Mas Alla, Fria Como El V
TTITLE6=iento, Entregate, Tengo Todo Excepto A Ti, La Incondicional)
TTITLE7=Suave
EXTD=YEAR: 1995
EXTT0=
EXTT1=
EXTT2=
EXTT3=
EXTT4=
EXTT5=
EXTT6=
EXTT7=
PLAYORDER=
